<svg role="img" viewBox="0 0 64 64" xmlns="http://www.w3.org/2000/svg">
  <title>macOS</title>
  <rect width="64" height="64" rx="14" fill="#F4F4F5"/>
  <path d="M43.4 33.7c0-5.5 4.5-8.1 4.7-8.2-2.6-3.8-6.6-4.3-8-4.4-3.4-.4-6.6 2-8.3 2-1.8 0-4.5-2-7.4-1.9-3.8.1-7.4 2.2-9.3 5.6-4 6.9-1 17.2 2.9 22.8 1.9 2.8 4.2 5.9 7.2 5.8 2.9-.1 4-1.9 7.5-1.9s4.5 1.9 7.6 1.8c3.1-.1 5.1-2.8 7-5.6 2.2-3.2 3.1-6.4 3.2-6.5-.1 0-6.1-2.3-6.1-9.5ZM37.8 17.5c1.6-1.9 2.7-4.6 2.4-7.2-2.3.1-5.1 1.5-6.8 3.5-1.5 1.7-2.8 4.5-2.4 7.1 2.6.2 5.2-1.4 6.8-3.4Z" fill="#0B0B0B"/>
</svg>
